<svg width="400" height="150" xmlns="http://www.w3.org/2000/svg">

 <g>
  <title>Layer 1</title>
  <g id="svg_3">
   <text transform="matrix(3.81386 0 0 4.09428 -649.142 -546.646)" stroke="#000" xml:space="preserve" text-anchor="start" font-family="Noto Sans JP" font-size="24" id="svg_1" y="159.92063" x="172.55969" stroke-width="0" fill="#006abc">S o l i d</text>
   <path stroke="#000" id="svg_2" d="m312.02323,71.13604l0,0c0,-22.64367 17.68476,-41 39.5,-41l0,0c10.47605,0 20.52303,4.31963 27.93071,12.00862c7.40769,7.68899 11.56929,18.1175 11.56929,28.99138l0,0c0,22.64367 -17.68476,41 -39.5,41l0,0c-21.81524,0 -39.5,-18.35633 -39.5,-41zm19.75,0l0,0c0,11.32183 8.84238,20.5 19.75,20.5c10.90763,0 19.75,-9.17817 19.75,-20.5c0,-11.32183 -8.84238,-20.5 -19.75,-20.5l0,0c-10.90762,0 -19.75,9.17817 -19.75,20.5z" stroke-width="0" fill="#ea5d00"/>
  </g>
 </g>
</svg>